<?xml version="1.0" encoding="utf-8"?>
<svg xmlns="http://www.w3.org/2000/svg" width="1200" height="630" viewBox="0 0 1200 630">
  <rect width="1200" height="630" fill="#FFFFFF"/>
  <rect x="40" y="40" rx="18" ry="18" width="1120" height="550" fill="#f6fbf7"/>
  <g transform="translate(80,110)">
    <rect x="0" y="0" rx="18" width="280" height="160" fill="#e9fff0"/>
    <path d="M28 140 L10 170 L52 148" fill="#e9fff0"/>
    <circle cx="230" cy="40" r="26" fill="#2fa84f"/>
    <rect x="24" y="28" width="200" height="8" rx="4" fill="#d6f3dd"/>
    <rect x="24" y="50" width="160" height="8" rx="4" fill="#d6f3dd"/>
    <rect x="24" y="72" width="120" height="8" rx="4" fill="#d6f3dd"/>
  </g>
  <text x="400" y="170" fill="#0f1720" font-family="Arial, Helvetica, sans-serif" font-size="44" font-weight="700">
    Сохраните клиентов при блокировке WhatsApp
  </text>
  <text x="400" y="220" fill="#2d3748" font-family="Arial, Helvetica, sans-serif" font-size="20">
    Автоответ + переход в российский мессенджер MAX — быстро и надёжно
  </text>
  <rect x="400" y="245" rx="8" ry="8" width="220" height="46" fill="#2fa84f"/>
  <text x="420" y="277" fill="#ffffff" font-family="Arial, Helvetica, sans-serif" font-size="18" font-weight="700">
    Настройка — 12 000 ₽
  </text>
  <text x="400" y="330" fill="#1f2937" font-family="Arial, Helvetica, sans-serif" font-size="16">
    • Автоответ в WhatsApp
  </text>
  <text x="400" y="356" fill="#1f2937" font-family="Arial, Helvetica, sans-serif" font-size="16">
    • Переход в MAX за 1 клик
  </text>
  <text x="400" y="382" fill="#1f2937" font-family="Arial, Helvetica, sans-serif" font-size="16">
    • Ежемесячные отчёты по переходам (опция)
  </text>
  <rect x="400" y="420" width="680" height="88" rx="8" fill="#ffffff" stroke="#e6eef0" />
  <text x="420" y="456" fill="#0f1720" font-family="Arial, Helvetica, sans-serif" font-size="18" font-weight="700">
    +7 (928) 201-55-47
  </text>
  <text x="420" y="484" fill="#4b5563" font-family="Arial, Helvetica, sans-serif" font-size="14">
    Telegram: @aibot_forhotels  •  shumlivaya-gif.github.io
  </text>
  <text x="60" y="590" fill="#94a3b8" font-family="Arial, Helvetica, sans-serif" font-size="12">
    Shumlivaya Partners — Автоответы и миграция клиентов
  </text>
</svg>
